<svg width="16" height="16" viewBox="0 0 16 16" fill="none" xmlns="http://www.w3.org/2000/svg">
<g clip-path="url(#clip0)">
<path d="M13.6569 2.34314C12.1459 0.832153 10.1368 0 8 0C5.86316 0 3.85413 0.832153 2.34314 2.34314C0.832153 3.85413 0 5.86316 0 8C0 10.137 0.832153 12.1459 2.34314 13.6569C3.85413 15.1678 5.86316 16 8 16C10.1368 16 12.1459 15.1678 13.6569 13.6569C15.1678 12.1459 16 10.137 16 8C16 5.86316 15.1678 3.85413 13.6569 2.34314ZM11.4602 10.3552C11.7653 10.6604 11.7653 11.155 11.4602 11.4601C11.3076 11.6127 11.1077 11.689 10.9077 11.689C10.7078 11.689 10.5078 11.6127 10.3552 11.4601L8 9.10486L5.64478 11.4602C5.49219 11.6127 5.29224 11.689 5.09229 11.689C4.89233 11.689 4.69238 11.6127 4.53979 11.4602C4.23474 11.155 4.23474 10.6604 4.53979 10.3553L6.89514 8L4.53979 5.64478C4.23474 5.3396 4.23474 4.84497 4.53979 4.53992C4.84497 4.23474 5.3396 4.23474 5.64465 4.53992L8 6.89514L10.3552 4.53992C10.6604 4.23486 11.155 4.23474 11.4601 4.53992C11.7653 4.84497 11.7653 5.3396 11.4601 5.64478L9.10486 8L11.4602 10.3552Z" fill="#EDEDED"/>
</g>
<defs>
<clipPath id="clip0">
<rect width="16" height="16" fill="white"/>
</clipPath>
</defs>
</svg>
