<svg width="20" height="20" viewBox="0 0 20 20" fill="none" xmlns="http://www.w3.org/2000/svg">
<path d="M3.10382 10.9091H13.6362C14.1383 10.9091 14.5453 10.502 14.5453 9.99998C14.5453 9.49792 14.1383 9.09089 13.6362 9.09089H3.10382L4.27921 7.91556C4.63424 7.56059 4.63424 6.98495 4.27921 6.62992C3.9243 6.27489 3.34867 6.27489 2.99358 6.62992L0.266485 9.35701C0.245394 9.37805 0.225515 9.40004 0.206606 9.42308C0.202 9.42871 0.198061 9.43477 0.193576 9.44053C0.179697 9.45817 0.166061 9.47586 0.153576 9.49453C0.149939 9.49998 0.14697 9.50574 0.143394 9.51126C0.130909 9.53077 0.118667 9.55047 0.107636 9.57101C0.105515 9.57507 0.103758 9.57938 0.101636 9.58344C0.0901818 9.60568 0.0791515 9.62823 0.0695152 9.6515C0.068303 9.65435 0.0674545 9.65738 0.066303 9.66029C0.0564242 9.68477 0.0472727 9.70956 0.0395152 9.73508C0.0384848 9.73829 0.0379394 9.74162 0.0370303 9.74489C0.029697 9.76992 0.0229697 9.7952 0.0178182 9.82108C0.016303 9.82877 0.0156364 9.83671 0.0142424 9.84447C0.0104848 9.86592 0.00672727 9.88738 0.00460606 9.90926C0.00151515 9.93926 0 9.96956 0 9.99998C0 10.0304 0.00151515 10.0607 0.00460606 10.0908C0.00672727 10.113 0.0106061 10.1346 0.014303 10.1562C0.0156364 10.1637 0.016303 10.1714 0.0178182 10.1789C0.0230303 10.205 0.029697 10.2305 0.0370909 10.2558C0.038 10.2588 0.0385455 10.2619 0.0394545 10.2649C0.0472727 10.2905 0.0564242 10.3156 0.0664242 10.3403C0.0675151 10.343 0.068303 10.3458 0.0694546 10.3485C0.0791515 10.3719 0.0902424 10.3946 0.101818 10.417C0.103818 10.4209 0.105515 10.425 0.107576 10.429C0.118727 10.4496 0.13103 10.4695 0.143697 10.4892C0.147091 10.4945 0.15 10.5002 0.153515 10.5054C0.166061 10.5241 0.179818 10.5419 0.193636 10.5596C0.198061 10.5653 0.202 10.5713 0.206545 10.5769C0.225515 10.5999 0.245394 10.6219 0.266424 10.643L2.99352 13.37C3.17103 13.5476 3.4037 13.6364 3.63636 13.6364C3.86903 13.6364 4.1017 13.5476 4.27915 13.37C4.63418 13.015 4.63418 12.4394 4.27915 12.0844L3.10382 10.9091Z" fill="#EDEDED" fill-opacity="0.8"/>
<path d="M12.5635 2.5636C10.082 2.5636 7.77328 3.79463 6.38753 5.8565C6.10753 6.27317 6.21831 6.83802 6.63498 7.11808C7.05171 7.39808 7.6165 7.28741 7.89662 6.87062C8.94395 5.31214 10.6886 4.38172 12.5635 4.38172C15.6613 4.38178 18.1817 6.90208 18.1817 10C18.1817 13.098 15.6613 15.6183 12.5635 15.6183C10.6941 15.6183 8.95232 14.692 7.90419 13.1406C7.62304 12.7246 7.05807 12.6152 6.64195 12.8963C6.22595 13.1773 6.1165 13.7424 6.39759 14.1584C7.78431 16.211 10.0893 17.4364 12.5635 17.4364C16.6639 17.4364 19.9999 14.1005 19.9999 10C19.9999 5.89953 16.6639 2.5636 12.5635 2.5636Z" fill="#EDEDED" fill-opacity="0.8"/>
</svg>
