<svg width="21" height="21" viewBox="0 0 21 21" fill="none" xmlns="http://www.w3.org/2000/svg">
<g clip-path="url(#clip0)">
<path d="M10.5327 0.190445C6.81528 0.190445 3.79089 3.34467 3.79089 7.2217C3.79089 8.53162 4.13881 9.80998 4.79726 10.919L10.149 19.9135C10.2515 20.0858 10.4321 20.1905 10.6263 20.1905C10.6278 20.1905 10.6293 20.1905 10.6308 20.1905C10.8267 20.1889 11.0077 20.0809 11.1083 19.9056L16.3236 10.824C16.9457 9.73842 17.2746 8.49276 17.2746 7.2217C17.2746 3.34467 14.2502 0.190445 10.5327 0.190445ZM15.3593 10.2224L10.6178 18.479L5.75228 10.3016C5.20421 9.3785 4.90704 8.3135 4.90704 7.2217C4.90704 3.99084 7.43485 1.35451 10.5327 1.35451C13.6306 1.35451 16.1547 3.99084 16.1547 7.2217C16.1547 8.28112 15.8771 9.31889 15.3593 10.2224Z" fill="#1D2730"/>
<path d="M10.5328 3.70607C8.67406 3.70607 7.16187 5.28318 7.16187 7.2217C7.16187 9.14783 8.64945 10.7373 10.5328 10.7373C12.4393 10.7373 13.9037 9.12666 13.9037 7.2217C13.9037 5.28318 12.3915 3.70607 10.5328 3.70607ZM10.5328 9.57326C9.28715 9.57326 8.27801 8.51729 8.27801 7.2217C8.27801 5.92935 9.29363 4.87013 10.5328 4.87013C11.7719 4.87013 12.7838 5.92935 12.7838 7.2217C12.7838 8.49838 11.7981 9.57326 10.5328 9.57326Z" fill="#1D2730"/>
</g>
<defs>
<clipPath id="clip0">
<rect width="19.1768" height="20" fill="white" transform="translate(0.944336 0.190445)"/>
</clipPath>
</defs>
</svg>
