<svg width="20" height="20" viewBox="0 0 20 20" fill="none" xmlns="http://www.w3.org/2000/svg">
<g clip-path="url(#clip0)">
<path d="M3.54468 7.05994C3.32907 7.05994 3.15405 7.2348 3.15405 7.45041C3.15405 7.66602 3.32907 7.84103 3.54468 7.84103C3.76028 7.84103 3.9353 7.66602 3.9353 7.45041C3.9353 7.2348 3.76028 7.05994 3.54468 7.05994Z" fill="#EDEDED" fill-opacity="0.9"/>
<path d="M14.4891 11.7272C14.416 11.654 14.3165 11.6128 14.2129 11.6128C14.2089 11.6136 14.0588 11.6052 13.9367 11.7272L13.6607 12.0033L12.7632 11.1059C14.7437 8.32956 14.4425 4.49976 12.0034 2.06079C9.25592 -0.686703 4.8086 -0.68716 2.06079 2.06079C-0.686703 4.80814 -0.68716 9.25562 2.06079 12.0034C4.49381 14.4366 8.32209 14.7488 11.1057 12.7632L12.0033 13.6607L11.7272 13.9367C11.5748 14.0891 11.5746 14.3366 11.7272 14.4892L16.6656 19.4271C17.4287 20.1907 18.6639 20.1911 19.4271 19.4273C20.1907 18.6643 20.191 17.429 19.4271 16.6657L14.4891 11.7272ZM12.5556 13.1083L11.7193 12.272C11.8165 12.1848 11.9116 12.0954 12.0034 12.0034C12.0954 11.9116 12.1848 11.8165 12.272 11.7195L13.1083 12.5558L12.5556 13.1083ZM2.61316 11.4511C0.170841 9.00888 0.170536 5.05564 2.61316 2.61316C5.05533 0.170841 9.00858 0.170536 11.4511 2.61316C13.8879 5.04984 13.9002 9.00217 11.4511 11.4511C8.97425 13.9282 5.02207 13.8601 2.61316 11.4511ZM14.2129 12.5558L15.3175 13.6605L13.6605 15.3175L12.5558 14.2129L14.2129 12.5558ZM18.8748 18.8749C18.417 19.3331 17.6762 19.3333 17.2181 18.8749L14.2129 15.8698L15.8698 14.2129L18.8749 17.2183C19.333 17.6759 19.3334 18.4167 18.8748 18.8749Z" fill="#EDEDED" fill-opacity="0.9"/>
<path d="M10.899 3.16579C8.76292 1.02971 5.30238 1.02849 3.16539 3.16548C1.03374 5.29759 1.03374 8.76683 3.16539 10.8991C5.30269 13.0362 8.76125 13.0364 10.8987 10.8991C13.0308 8.76683 13.031 5.29774 10.899 3.16579ZM10.3463 10.3466C8.51451 12.1784 5.55003 12.1788 3.71776 10.3467C1.89067 8.51903 1.89067 5.54539 3.71776 3.7177C5.54866 1.88695 8.51512 1.88649 10.3466 3.71815C12.174 5.54555 12.1739 8.51903 10.3463 10.3466Z" fill="#EDEDED" fill-opacity="0.9"/>
<path d="M7.03219 3.12671C5.98819 3.12671 5.00735 3.5329 4.27036 4.27035C3.84311 4.6976 3.52863 5.20236 3.33576 5.7709C3.26648 5.97507 3.37574 6.19693 3.58005 6.2662C3.78467 6.33563 4.00623 6.22577 4.0755 6.02191C4.22946 5.56796 4.48093 5.16452 4.82272 4.82257C5.41232 4.23282 6.19693 3.90796 7.03219 3.90796C7.24795 3.90796 7.42282 3.73309 7.42282 3.51733C7.42282 3.30157 7.24795 3.12671 7.03219 3.12671Z" fill="#EDEDED" fill-opacity="0.9"/>
</g>
<defs>
<clipPath id="clip0">
<rect width="20" height="20" fill="white"/>
</clipPath>
</defs>
</svg>
