<svg width="20" height="21" viewBox="0 0 20 21" fill="none" xmlns="http://www.w3.org/2000/svg">
<g clip-path="url(#clip0)">
<path d="M18.6773 14.5055C18.3196 13.9572 17.7128 13.8233 17.0536 14.1468L16.7042 14.3072C17.2551 13.0826 17.3235 11.7175 17.0492 10.4281C16.7343 8.94709 15.9735 7.5124 14.7882 6.16384C14.6834 6.04459 14.5057 6.03654 14.3913 6.14587C14.277 6.25517 14.2693 6.44045 14.3741 6.55974C15.492 7.83146 16.2075 9.17564 16.5008 10.5549C16.8098 12.0078 16.6301 13.506 15.8416 14.7033L12.3455 16.3088L12.3484 15.897C12.3485 15.8866 12.348 15.8762 12.347 15.8658C12.2663 15.0195 11.646 14.3451 10.8385 14.226C10.8361 14.2256 10.8337 14.2253 10.8313 14.225L7.724 13.8519C6.52916 13.6745 6.22143 12.9278 4.60324 12.5019C4.49144 11.5125 4.64047 10.459 5.04895 9.40287C5.66414 7.81232 6.86767 6.26701 8.53612 4.92197C9.15798 5.38181 11.9324 5.43904 12.5532 4.84583C12.8713 5.09775 13.1748 5.35736 13.4576 5.62013C13.5111 5.6699 13.5779 5.69435 13.6444 5.69435C13.7217 5.69435 13.7987 5.66126 13.8542 5.5963C13.9573 5.47552 13.9471 5.29037 13.8313 5.18275C13.5213 4.89474 13.1879 4.61056 12.8382 4.33591C12.9201 3.97349 12.8054 3.54931 12.5028 3.29681C13.3822 1.90572 13.638 0.995207 13.2847 0.518176C13.042 0.19048 12.7401 0.344269 12.6112 0.409972C12.3927 0.521222 12.2735 0.527082 12.0725 0.389894C11.6889 0.128136 11.2857 0.119699 10.8898 0.389894C10.6862 0.52884 10.5259 0.52884 10.3223 0.389894C9.93872 0.128136 9.53571 0.119699 9.13971 0.389894C8.93633 0.528722 8.81673 0.520129 8.60167 0.408644C8.4729 0.341886 8.17135 0.185558 7.92715 0.513293C7.58178 0.976887 7.81284 1.85868 8.63291 3.20247C8.58268 3.23079 8.53481 3.26404 8.49013 3.30201C8.16398 2.94279 7.62961 2.56814 6.85685 2.65814C6.21589 2.73294 5.74325 2.51204 5.45957 2.31361C5.33072 2.22361 5.15626 2.25947 5.06989 2.39376C4.98352 2.52814 5.01794 2.71009 5.14675 2.80017C5.50837 3.05302 6.10937 3.33451 6.91917 3.24033C7.5162 3.17048 7.92131 3.48869 8.17349 3.81251C8.17004 3.82501 8.16686 3.83759 8.1639 3.85017C7.9488 3.85369 7.62733 3.87462 7.27331 3.95142C6.42189 4.13615 5.78988 4.55814 5.44556 5.17189C5.36724 5.3115 5.41226 5.49095 5.54612 5.57267C5.68002 5.65435 5.85205 5.60736 5.93037 5.46775C6.44252 4.5549 7.69265 4.44326 8.18918 4.43626C8.19132 4.44271 8.19383 4.44908 8.19607 4.45548C6.42417 5.88099 5.19057 7.47072 4.52807 9.18361C4.10933 10.2663 3.94206 11.351 4.02697 12.3818C3.75763 12.3403 3.48518 12.3179 3.21143 12.316V12.1388C3.21143 11.6701 2.8458 11.2888 2.39638 11.2888H1.10704C0.657624 11.2888 0.291992 11.6702 0.291992 12.1388V18.9609C0.291992 19.4296 0.657624 19.8109 1.10704 19.8109H2.39634C2.84576 19.8109 3.21139 19.4296 3.21139 18.9609V18.8774L6.02389 19.9692C6.40185 20.1159 6.79797 20.1903 7.20124 20.1903H11.3919C12.0326 20.1903 12.6573 20.0012 13.1984 19.6436C18.7889 15.9475 18.4494 16.1775 18.4817 16.1476C18.932 15.7308 19.0161 15.0247 18.6773 14.5055V14.5055ZM12.0261 4.49873C10.9991 4.76919 10.0004 4.76919 8.97314 4.49873C8.53234 4.38251 8.66006 3.56259 9.13379 3.6865C10.0528 3.92712 10.9464 3.92712 11.8655 3.6865C12.331 3.56462 12.474 4.38068 12.0261 4.49873ZM8.34514 0.929934C8.34735 0.931067 8.34956 0.932238 8.35166 0.933332C8.73179 1.13036 9.06487 1.14107 9.44725 0.880168C9.92577 0.553488 9.97771 1.07728 10.606 1.07728C10.9085 1.07728 11.0754 0.963371 11.1973 0.880168C11.401 0.741184 11.5613 0.741262 11.7649 0.880168C12.149 1.14228 12.474 1.12935 12.8652 0.93259C12.923 1.14986 12.7922 1.79755 11.9594 3.09076C11.5458 3.08341 10.9456 3.50704 9.2466 3.11271C8.41556 1.80279 8.28705 1.1488 8.34514 0.929934V0.929934ZM18.124 15.6952L12.8978 19.149C12.4467 19.4471 11.926 19.6047 11.3919 19.6047H7.20128C6.86513 19.6047 6.53493 19.5426 6.21986 19.4203L3.21139 18.2525V15.098C3.21139 14.9362 3.08566 14.8051 2.93056 14.8051C2.77546 14.8051 2.64972 14.9362 2.64972 15.098V18.961C2.64972 19.1067 2.53605 19.2253 2.39638 19.2253H1.10704C0.967336 19.2253 0.853699 19.1067 0.853699 18.961V12.139C0.853699 11.9933 0.967336 11.8748 1.10704 11.8748H2.39634C2.53605 11.8748 2.64968 11.9933 2.64968 12.139V13.7286C2.64968 13.8904 2.77542 14.0215 2.93052 14.0215C3.08562 14.0215 3.21135 13.8904 3.21135 13.7286V12.902C5.5347 12.9205 6.05708 14.1977 7.64882 14.4325C7.65122 14.4329 7.65362 14.4332 7.65602 14.4335L10.7631 14.8065C11.3072 14.8885 11.7259 15.3403 11.7865 15.9092L11.7826 16.4663H8.88494C8.72984 16.4663 8.60407 16.5975 8.60407 16.7593C8.60407 16.9211 8.7298 17.0522 8.88494 17.0522H12.0614C12.0969 17.0522 12.1379 17.044 12.1735 17.0278C12.1793 17.0251 17.2772 14.6842 17.2832 14.6815C17.6506 14.5112 17.9857 14.4869 18.2129 14.8351C18.3895 15.1056 18.3504 15.4715 18.124 15.6952Z" fill="#1D2730"/>
<path d="M10.5737 13.4803C10.7288 13.4803 10.8545 13.3492 10.8545 13.1874V12.7018C11.643 12.5684 12.103 11.9028 12.2031 11.2818C12.3281 10.5062 11.9386 9.83161 11.2107 9.56329C11.0821 9.51587 10.9637 9.47052 10.8545 9.42673V7.55907C11.1867 7.61653 11.3862 7.79587 11.4008 7.80926C11.5149 7.91747 11.6914 7.90946 11.7961 7.7911C11.9013 7.67219 11.8941 7.48688 11.7801 7.37719C11.7603 7.35813 11.4163 7.03512 10.8545 6.96758V6.55102C10.8545 6.38922 10.7288 6.25809 10.5736 6.25809C10.4185 6.25809 10.2928 6.38922 10.2928 6.55102V6.99126C10.2251 7.00477 10.1557 7.02196 10.0844 7.04434C9.60799 7.19399 9.25187 7.62005 9.15498 8.15618C9.06707 8.6427 9.21498 9.11059 9.54095 9.37723C9.72811 9.53032 9.9637 9.67048 10.2928 9.82032V12.1368C9.96797 12.1224 9.76804 12.0588 9.41926 11.8209C9.28948 11.7324 9.11539 11.7702 9.03048 11.9056C8.94557 12.041 8.98194 12.2225 9.11175 12.3111C9.57024 12.6239 9.87673 12.7055 10.2928 12.7224V13.1874C10.2928 13.3492 10.4185 13.4803 10.5737 13.4803V13.4803ZM9.88763 8.9163C9.72728 8.78512 9.65803 8.53544 9.70698 8.26469C9.75238 8.0136 9.91789 7.70852 10.2464 7.60532C10.2621 7.6004 10.2774 7.59618 10.2928 7.59188V9.17411C10.1246 9.08653 9.99273 9.00227 9.88763 8.9163V8.9163ZM11.0235 10.1156C11.7224 10.3733 11.6791 10.9991 11.6492 11.1848C11.5872 11.5692 11.3166 11.9796 10.8545 12.1031V10.0522C10.9092 10.073 10.965 10.0941 11.0235 10.1156V10.1156Z" fill="#1D2730"/>
</g>
<defs>
<clipPath id="clip0">
<rect width="19.1768" height="20" fill="white" transform="translate(0 0.190445)"/>
</clipPath>
</defs>
</svg>
