<svg width="16" height="20" viewBox="0 0 16 20" fill="none" xmlns="http://www.w3.org/2000/svg">
<path d="M8.00012 5.82458C10.2268 5.82458 12.0383 7.63615 12.0383 9.86279C12.0383 10.1118 11.8365 10.3137 11.5874 10.3137C11.3384 10.3137 11.1365 10.1118 11.1365 9.86279C11.1365 8.13341 9.72954 6.72638 8.00012 6.72638C7.75109 6.72638 7.54922 6.52447 7.54922 6.27548C7.54922 6.02642 7.75109 5.82458 8.00012 5.82458Z" fill="#EDEDED"/>
<path d="M0.882315 16.2162L1.85798 14.3851V9.86285C1.85798 7.06734 3.7354 4.70227 6.2956 3.96172V1.70438C6.29556 0.76457 7.06009 0 7.99989 0C8.9397 0 9.70423 0.76457 9.70423 1.70438V3.96176C12.2643 4.70234 14.1418 7.06738 14.1418 9.86289V14.3851L15.1175 16.2162C15.3054 16.5689 15.2947 16.9839 15.0891 17.3265C14.8834 17.6691 14.5222 17.8736 14.1226 17.8736H10.2492C10.1833 19.0572 9.19977 20 7.99989 20C6.80005 20 5.81653 19.0572 5.75056 17.8736H1.87716C1.47763 17.8736 1.11634 17.6691 0.910635 17.3265C0.705089 16.9839 0.694463 16.5689 0.882315 16.2162ZM8.80243 1.70438C8.80243 1.2618 8.44243 0.901797 7.99993 0.901797C7.55743 0.901797 7.19743 1.2618 7.19743 1.70438V3.77344C7.46017 3.73898 7.72802 3.72102 7.99993 3.72102C8.27192 3.72102 8.53974 3.73902 8.80243 3.77344V1.70438ZM13.24 9.86285C13.24 6.97348 10.8893 4.62273 7.99989 4.62273C5.11048 4.62273 2.75978 6.97348 2.75978 9.86285V14.012H13.24V9.86285ZM7.99989 19.0982C8.70227 19.0982 9.28095 18.5595 9.34501 17.8736H6.6547C6.71884 18.5595 7.29759 19.0982 7.99989 19.0982ZM1.68388 16.8623C1.70364 16.8953 1.76196 16.9718 1.87716 16.9718H14.1226C14.2377 16.9718 14.2961 16.8953 14.3159 16.8623C14.3356 16.8295 14.3757 16.742 14.3215 16.6403L13.4016 14.9137H2.59806L1.67817 16.6403C1.62407 16.742 1.66419 16.8295 1.68388 16.8623Z" fill="#EDEDED" fill-opacity="0.9"/>
</svg>
