<svg width="20" height="20" viewBox="0 0 20 20" fill="none" xmlns="http://www.w3.org/2000/svg">
<g clip-path="url(#clip0)">
<path d="M10.0001 5.82458C12.2268 5.82458 14.0383 7.63615 14.0383 9.86279C14.0383 10.1118 13.8365 10.3137 13.5874 10.3137C13.3384 10.3137 13.1365 10.1118 13.1365 9.86279C13.1365 8.13341 11.7295 6.72638 10.0001 6.72638C9.75109 6.72638 9.54922 6.52447 9.54922 6.27548C9.54922 6.02642 9.75109 5.82458 10.0001 5.82458Z" fill="#EDEDED"/>
<path d="M2.88231 16.2162L3.85798 14.3851V9.86285C3.85798 7.06734 5.7354 4.70227 8.2956 3.96172V1.70438C8.29556 0.76457 9.06009 0 9.99989 0C10.9397 0 11.7042 0.76457 11.7042 1.70438V3.96176C14.2643 4.70234 16.1418 7.06738 16.1418 9.86289V14.3851L17.1175 16.2162C17.3054 16.5689 17.2947 16.9839 17.0891 17.3265C16.8834 17.6691 16.5222 17.8736 16.1226 17.8736H12.2492C12.1833 19.0572 11.1998 20 9.99989 20C8.80005 20 7.81653 19.0572 7.75056 17.8736H3.87716C3.47763 17.8736 3.11634 17.6691 2.91063 17.3265C2.70509 16.9839 2.69446 16.5689 2.88231 16.2162ZM10.8024 1.70438C10.8024 1.2618 10.4424 0.901797 9.99993 0.901797C9.55743 0.901797 9.19743 1.2618 9.19743 1.70438V3.77344C9.46017 3.73898 9.72802 3.72102 9.99993 3.72102C10.2719 3.72102 10.5397 3.73902 10.8024 3.77344V1.70438ZM15.24 9.86285C15.24 6.97348 12.8893 4.62273 9.99989 4.62273C7.11048 4.62273 4.75978 6.97348 4.75978 9.86285V14.012H15.24V9.86285ZM9.99989 19.0982C10.7023 19.0982 11.2809 18.5595 11.345 17.8736H8.6547C8.71884 18.5595 9.29759 19.0982 9.99989 19.0982ZM3.68388 16.8623C3.70364 16.8953 3.76196 16.9718 3.87716 16.9718H16.1226C16.2377 16.9718 16.2961 16.8953 16.3159 16.8623C16.3356 16.8295 16.3757 16.742 16.3215 16.6403L15.4016 14.9137H4.59806L3.67817 16.6403C3.62407 16.742 3.66419 16.8295 3.68388 16.8623Z" fill="#EDEDED" fill-opacity="0.9"/>
<circle cx="17" cy="6" r="3.25" fill="#FD5959" stroke="#1D2730" stroke-width="0.5"/>
</g>
<defs>
<clipPath id="clip0">
<rect width="20" height="20" fill="white" transform="matrix(-1 0 0 1 20 0)"/>
</clipPath>
</defs>
</svg>
