<svg width="20" height="20" viewBox="0 0 20 20" fill="none" xmlns="http://www.w3.org/2000/svg">
<g clip-path="url(#clip0)">
<path d="M18.1801 19.738H16.1801C16.1801 16.364 13.3501 13.62 9.86908 13.62C6.38808 13.62 3.55908 16.365 3.55908 19.738H1.55908C1.55908 15.26 5.28808 11.62 9.87008 11.62C14.4511 11.62 18.1801 15.26 18.1801 19.738Z" fill="#EDEDED" fill-opacity="0.8"/>
<path d="M9.86999 10.97C6.84699 10.97 4.38599 8.508 4.38599 5.485C4.38499 2.461 6.84599 0 9.86999 0C12.895 0 15.356 2.46 15.356 5.485C15.356 8.51 12.895 10.97 9.86999 10.97ZM9.86999 2C7.94799 2 6.38499 3.563 6.38499 5.485C6.38499 7.407 7.94799 8.97 9.86999 8.97C11.793 8.97 13.356 7.407 13.356 5.485C13.356 3.563 11.791 2 9.86999 2Z" fill="#EDEDED" fill-opacity="0.8"/>
</g>
<defs>
<clipPath id="clip0">
<rect width="19.738" height="19.738" fill="white"/>
</clipPath>
</defs>
</svg>
