<svg width="20" height="20" viewBox="0 0 20 20" fill="none" xmlns="http://www.w3.org/2000/svg">
<path d="M4.77764 19.1735C4.45834 19.1735 4.14127 19.0735 3.87017 18.8766C3.3902 18.5281 3.15422 17.9484 3.25434 17.3637L4.11314 12.3485L0.468607 8.79788C0.043758 8.38397 -0.1064 7.77638 0.0767272 7.21219C0.259854 6.64805 0.738297 6.24449 1.32522 6.15906L6.36032 5.42604L8.61093 0.862666C8.87331 0.330707 9.40477 0.000117189 9.99794 0H9.99837C10.5914 0 11.1228 0.330238 11.3854 0.861924L11.7709 1.64268C11.8664 1.83612 11.7871 2.07038 11.5936 2.16588C11.4003 2.26139 11.166 2.18206 11.0704 1.98858L10.6849 1.20787C10.5529 0.940753 10.2963 0.781259 9.99833 0.781259C9.99825 0.781259 9.99821 0.781259 9.99809 0.781259C9.70008 0.781337 9.4434 0.940948 9.31156 1.20826L6.97013 5.95581C6.91325 6.07113 6.80329 6.15105 6.67606 6.16956L1.43772 6.93215C1.14279 6.97508 0.911776 7.16997 0.819783 7.45345C0.72775 7.73693 0.800251 8.03033 1.01373 8.2383L4.80534 11.9322C4.89741 12.022 4.93948 12.1512 4.91776 12.278L4.02431 17.4956C3.974 17.7893 4.08795 18.0693 4.32912 18.2444C4.5703 18.4195 4.87174 18.4412 5.1355 18.3024L9.82032 15.8379C9.93411 15.778 10.07 15.778 10.1839 15.8378L14.87 18.2999C15.1338 18.4385 15.4353 18.4166 15.6764 18.2413C15.9174 18.0661 16.0312 17.7861 15.9808 17.4924L15.0846 12.2753C15.0628 12.1485 15.1048 12.0192 15.1968 11.9294L18.9865 8.23349C19.1998 8.02541 19.2722 7.73197 19.18 7.44852C19.0878 7.16512 18.8567 6.97036 18.5617 6.92758L13.323 6.16777C13.1958 6.14929 13.0858 6.06941 13.0288 5.95413L12.6276 5.14158C12.5321 4.94814 12.6114 4.71388 12.8049 4.61837C12.9983 4.52283 13.2325 4.60224 13.3281 4.79568L13.6384 5.42409L18.6739 6.15441C19.2609 6.23957 19.7395 6.64281 19.923 7.20688C20.1064 7.77095 19.9566 8.37865 19.532 8.7928L15.8893 12.3454L16.7508 17.3601C16.8512 17.9447 16.6156 18.5245 16.1358 18.8733C15.6561 19.2221 15.0318 19.2673 14.5067 18.9914L10.0023 16.6249L5.49925 18.9938C5.27093 19.1141 5.02358 19.1735 4.77764 19.1735Z" fill="#EDEDED" fill-opacity="0.9"/>
</svg>
