<svg width="20" height="21" viewBox="0 0 20 21" fill="none" xmlns="http://www.w3.org/2000/svg">
<path d="M18.3312 1.0688C17.2055 -0.0969472 15.3888 -0.0969472 14.2631 1.0688C14.2331 1.10017 14.2094 1.13745 14.1934 1.17844C14.1794 1.21505 14.172 1.254 14.1714 1.29341C14.1704 1.29715 14.1697 1.3009 14.1691 1.30474C14.1692 1.34831 14.1774 1.39146 14.1934 1.4317C14.2092 1.47256 14.2328 1.50964 14.2627 1.54067L15.8453 3.1912L15.2334 3.82901C13.7005 2.35119 11.6898 1.53017 9.6022 1.52967C9.59677 1.52801 9.59262 1.52501 9.58718 1.52501C9.58175 1.52501 9.5776 1.52801 9.57217 1.52801C7.48433 1.52892 5.47355 2.35069 3.94092 3.82935L3.32904 3.1912L4.91163 1.54067C4.94158 1.50964 4.96519 1.47256 4.98096 1.4317C4.99694 1.39146 5.00521 1.34831 5.00525 1.30474C5.00525 1.30074 5.00333 1.2974 5.00301 1.29341C5.00329 1.21651 4.97461 1.14253 4.92313 1.08746C4.91834 1.0818 4.91674 1.0748 4.91163 1.06947C3.78815 -0.102404 1.96648 -0.102571 0.842843 1.06914C-0.280834 2.24084 -0.280954 4.14072 0.842523 5.31259C0.846996 5.31759 0.853387 5.31892 0.85818 5.32359C0.884221 5.34916 0.914256 5.36991 0.947006 5.3849C0.981874 5.39919 1.01886 5.40698 1.05628 5.4079C1.06012 5.4079 1.06395 5.41023 1.06811 5.41023C1.10972 5.41006 1.15094 5.40156 1.18952 5.38524C1.22862 5.36845 1.26413 5.34379 1.29401 5.31259L2.87724 3.66239L3.48912 4.30055C0.373466 7.81321 0.578079 13.2949 3.94611 16.5443C4.23404 16.822 4.54042 17.0782 4.86306 17.3108L2.65101 19.6175C2.52408 19.7453 2.52057 19.9563 2.64319 20.0887C2.76576 20.2211 2.96806 20.2247 3.09499 20.0969C3.09767 20.0942 3.10026 20.0914 3.10282 20.0887L5.41519 17.6771C7.99301 19.2455 11.1807 19.2455 13.7585 17.6771L16.0709 20.0887C16.1978 20.2166 16.4001 20.2129 16.5227 20.0805C16.6423 19.9514 16.6423 19.7466 16.5227 19.6175L14.3107 17.3108C18.0848 14.5879 19.0278 9.18965 16.417 5.25348C16.1946 4.91829 15.9499 4.59984 15.6846 4.30055L16.2971 3.66239L17.8797 5.31292C17.9096 5.34412 17.9451 5.36878 17.9842 5.38557C18.0228 5.4019 18.064 5.4104 18.1056 5.41056C18.1098 5.41056 18.1136 5.40823 18.1174 5.40823C18.1549 5.40731 18.1919 5.39952 18.2267 5.38524C18.2595 5.37024 18.2895 5.3495 18.3156 5.32392C18.3203 5.31925 18.3267 5.31792 18.3312 5.31292C19.4487 4.13893 19.4479 2.24368 18.3312 1.0688ZM1.08536 4.5888C0.348543 3.55363 0.555832 2.09155 1.54839 1.32306C2.3406 0.709739 3.42446 0.709739 4.21667 1.32306L1.08536 4.5888ZM17.242 9.85596H15.6581C15.4816 9.85596 15.3386 10.0052 15.3386 10.1892C15.3386 10.3732 15.4816 10.5224 15.6581 10.5224H17.2477C17.0769 14.6748 13.8881 18.0004 9.90671 18.1786V16.5207C9.90671 16.3367 9.76364 16.1875 9.58718 16.1875C9.41073 16.1875 9.26766 16.3367 9.26766 16.5207V18.1786C5.28623 18.0004 2.09748 14.6748 1.92666 10.5224H3.51628C3.69273 10.5224 3.8358 10.3732 3.8358 10.1892C3.8358 10.0052 3.69273 9.85596 3.51628 9.85596H1.93241C2.00498 7.85815 2.7958 5.96195 4.14765 4.54448C4.15276 4.53981 4.15916 4.53814 4.16395 4.53315C4.16874 4.52815 4.17034 4.52148 4.17481 4.51615C5.53366 3.1058 7.35193 2.28096 9.26766 2.20581V3.85767C9.26766 4.0417 9.41073 4.19091 9.58718 4.19091C9.76364 4.19091 9.90671 4.0417 9.90671 3.85767V2.20581C11.8224 2.28091 13.6408 3.10576 14.9996 4.51615C15.004 4.52148 15.0056 4.52815 15.0104 4.53315C15.0152 4.53814 15.0216 4.53981 15.0267 4.54448C16.3785 5.96199 17.1693 7.85815 17.242 9.85596ZM18.0884 4.58813L14.9571 1.3224C15.9453 0.54941 17.3472 0.758308 18.0884 1.78893C18.6848 2.61836 18.6848 3.75874 18.0884 4.58813Z" fill="#1D2730"/>
<path d="M14.1311 7.06833H14.1318L10.4975 9.25636C10.0068 8.73185 9.20123 8.72156 8.69831 9.23337C8.69088 9.24095 8.68353 9.24862 8.67626 9.25636L6.70258 8.06804C6.55032 7.97498 6.35458 8.02822 6.26535 8.18701C6.17613 8.34579 6.22717 8.54994 6.37942 8.643C6.38062 8.64375 6.38186 8.64446 6.3831 8.64521L8.35997 9.83553C8.16171 10.5421 8.55021 11.2824 9.22768 11.4892C9.90514 11.696 10.615 11.2908 10.8133 10.5842C10.8818 10.3398 10.8818 10.08 10.8133 9.83549L14.4507 7.64545C14.6029 7.5524 14.654 7.34821 14.5648 7.18946C14.4763 7.03221 14.2831 6.97823 14.1311 7.06833ZM9.58722 10.8559C9.23427 10.8559 8.94817 10.5575 8.94817 10.1894C8.94817 9.82133 9.23427 9.52295 9.58722 9.52295C9.94017 9.52295 10.2263 9.82133 10.2263 10.1894C10.2263 10.5575 9.94013 10.8559 9.58722 10.8559Z" fill="#1D2730"/>
</svg>
